M48
;GenerationSoftware,Autodesk,EAGLE,9.6.2*%
;CreationDate,2021-05-06T22:42:45Z*%
FMAT,2
ICI,OFF
METRIC,TZ,000.000
T7C0.550
T6C0.813
T5C0.900
T4C1.000
T3C1.016
T2C1.500
T1C3.175
%
G90
M71
T1
X96520Y3810
X3810Y3810
X97790Y77470
X97790Y96520
X2540Y77470
X2540Y96520
T2
X2540Y63810
X2540Y70810
T3
X48260Y20320
X59690Y87630
X48260Y17780
X48260Y15240
X48260Y12700
X48260Y10160
X48260Y7620
X48260Y5080
X48260Y2540
X83820Y20320
X83820Y17780
X83820Y15240
X83820Y12700
X83820Y10160
X83820Y7620
X83820Y5080
X83820Y2540
X50800Y20320
X50800Y17780
X50800Y15240
X50800Y12700
X50800Y10160
X50800Y7620
X50800Y5080
X50800Y2540
X86360Y20320
X86360Y17780
X86360Y5080
X86360Y2540
X78740Y20320
X78740Y17780
X78740Y15240
X78740Y12700
X78740Y10160
X78740Y7620
X78740Y5080
X78740Y2540
X76200Y20320
X76200Y17780
X76200Y15240
X76200Y12700
X76200Y10160
X76200Y7620
X76200Y5080
X76200Y2540
X73660Y20320
X73660Y17780
X73660Y15240
X73660Y12700
X73660Y10160
X73660Y7620
X73660Y5080
X73660Y2540
X71120Y20320
X71120Y17780
X71120Y15240
X71120Y12700
X86360Y15240
X54610Y80010
X2540Y41910
X2540Y44450
X71120Y10160
X71120Y7620
X71120Y5080
X8890Y58420
X11430Y58420
X13970Y58420
X16510Y58420
X71120Y2540
X68580Y20320
X68580Y17780
X68580Y15240
X27940Y63500
X27940Y60960
X27940Y58420
X27940Y55880
X27940Y53340
X68580Y12700
X68580Y10160
X68580Y7620
X68580Y5080
X68580Y2540
X66040Y20320
X66040Y17780
X66040Y15240
X66040Y12700
X66040Y10160
X6350Y33020
X6350Y30480
X6350Y27940
X6350Y25400
X6350Y22860
X6350Y20320
X13970Y34290
X13970Y31750
X13970Y29210
X13970Y26670
X13970Y24130
X13970Y21590
X13970Y19050
X66040Y7620
X66040Y5080
X66040Y2540
X63500Y20320
X63500Y17780
X63500Y15240
X63500Y12700
X63500Y10160
X63500Y7620
X63500Y5080
X63500Y2540
X60960Y20320
X60960Y17780
X60960Y15240
X60960Y12700
X60960Y10160
X60960Y7620
X60960Y5080
X60960Y2540
X58420Y20320
X58420Y17780
X58420Y15240
X58420Y12700
X58420Y10160
X58420Y7620
X58420Y5080
X58420Y2540
X55880Y20320
X55880Y17780
X55880Y15240
X55880Y12700
X55880Y10160
X55880Y7620
X55880Y5080
X55880Y2540
X78740Y74930
X82550Y74930
X86360Y74930
X74930Y45720
X74930Y48260
X74930Y50800
X86360Y7620
X46990Y85090
X46990Y82550
X46990Y80010
X46990Y77470
X46990Y74930
X46990Y72390
X46990Y69850
X54610Y85090
X54610Y82550
X86360Y12700
X54610Y77470
X54610Y74930
X54610Y72390
X54610Y69850
X86360Y10160
X59690Y90170
X36830Y87630
X36830Y90170
X29210Y5080
X26670Y5080
X29210Y7620
X26670Y7620
X29210Y10160
X26670Y10160
X29210Y12700
X26670Y12700
X29210Y15240
X26670Y15240
X29210Y17780
X26670Y17780
X29210Y20320
X26670Y20320
X29210Y22860
X26670Y22860
X29210Y25400
X26670Y25400
X29210Y27940
X26670Y27940
X29210Y30480
X26670Y30480
X74930Y53340
X74930Y55880
X74930Y58420
X74930Y60960
X31750Y25400
X24130Y22860
X24130Y10160
T4
X68540Y77470
X63540Y77470
X26710Y71120
X31710Y71120
T5
X5240Y69810
X5240Y64810
X2540Y55840
X2540Y53340
X2540Y50840
T6
X86360Y25400
X86360Y27940
X71120Y25400
X71120Y35560
X74930Y25400
X74930Y35560
X74930Y40640
X74930Y43180
X86360Y63500
X86360Y60960
X86360Y58420
X86360Y55880
X86360Y53340
X86360Y50800
X86360Y48260
X86360Y45720
X86360Y43180
X86360Y40640
X86360Y38100
X86360Y35560
X86360Y33020
X86360Y30480
X78740Y30480
X78740Y33020
X78740Y35560
X78740Y38100
X78740Y40640
X78740Y43180
X78740Y45720
X78740Y48260
X78740Y50800
X78740Y53340
X78740Y55880
X78740Y58420
X78740Y60960
X78740Y63500
X41910Y30480
X41910Y33020
X60960Y38100
X60960Y43180
X59690Y60960
X59690Y63500
X22860Y63500
X22860Y73660
X76200Y23368
X86360Y23368
X13335Y71755
X13335Y61595
X9652Y71882
X9652Y69342
X71120Y82550
X58420Y33020
X58420Y22860
X60960Y33020
X60960Y22860
X54610Y63500
X54610Y60960
X54610Y58420
X54610Y55880
X54610Y53340
X54610Y50800
X54610Y48260
X54610Y45720
X54610Y43180
X54610Y40640
X54610Y38100
X54610Y35560
X54610Y33020
X54610Y30480
X46990Y30480
X46990Y33020
X46990Y35560
X46990Y38100
X46990Y40640
X46990Y43180
X46990Y45720
X46990Y48260
X46990Y50800
X46990Y53340
X46990Y55880
X46990Y58420
X46990Y60960
X46990Y63500
X60960Y82550
T7
X49530Y59690
X33020Y59690
X45720Y5080
X50800Y29210
X52070Y22860
X41910Y22860
X33020Y33020
X22860Y49530
X24130Y50800
X33020Y34290
X49530Y48260
X49530Y39370
X38100Y25400
X38100Y30480
X43180Y27940
X27940Y48260
X36830Y48260
X19050Y15240
X35560Y38100
X38100Y43180
X31750Y43180
X29210Y41910
X44450Y10541
X44450Y2540
X67310Y35560
X50546Y41910
X31750Y39370
X20320Y21590
X7620Y66548
M30